<?xml version="1.0" standalone="no"?>
<!DOCTYPE svg PUBLIC "-//W3C//DTD SVG 20010904//EN"
 "http://www.w3.org/TR/2001/REC-SVG-20010904/DTD/svg10.dtd">
<svg version="1.0" xmlns="http://www.w3.org/2000/svg"
 width="225.000000pt" height="225.000000pt" viewBox="0 0 225.000000 225.000000"
 preserveAspectRatio="xMidYMid meet">

<g transform="translate(0.000000,225.000000) scale(0.100000,-0.100000)"
fill="#000000" stroke="none">
<path d="M1175 1798 c-63 -28 -73 -30 -107 -19 -21 6 -55 16 -76 23 -46 13
-88 5 -102 -21 -5 -11 -19 -79 -29 -151 -11 -73 -22 -134 -25 -138 -3 -3 -52
-11 -108 -19 -112 -16 -213 -50 -213 -72 0 -39 125 -73 336 -92 158 -15 542
-6 664 15 267 46 268 101 4 145 l-103 18 -36 155 c-20 86 -42 163 -49 172 -21
25 -78 19 -156 -16z"/>
<path d="M853 1244 c-26 -11 -14 -65 20 -99 61 -61 159 -54 205 15 13 19 30
35 37 35 7 0 24 -16 37 -35 28 -41 84 -64 135 -54 65 12 123 93 92 130 -12 14
-29 15 -119 9 -131 -8 -149 -8 -285 -1 -60 3 -116 3 -122 0z"/>
<path d="M800 1024 c-36 -8 -85 -24 -110 -37 -58 -29 -57 -46 15 -147 l54 -78
-47 -6 c-101 -14 -206 -86 -247 -171 -10 -22 -21 -68 -23 -102 l-4 -63 686 0
686 0 0 53 c0 136 -122 263 -273 283 l-46 7 55 77 c29 42 55 88 56 100 5 37
-56 64 -209 95 -28 6 -32 4 -38 -24 -16 -72 -152 -181 -228 -181 -74 0 -193
87 -229 168 -10 23 -22 42 -26 41 -4 -1 -36 -7 -72 -15z"/>
</g>
</svg>
